<?xml version="1.0" standalone="no"?>
<!DOCTYPE svg PUBLIC "-//W3C//DTD SVG 20010904//EN"
 "http://www.w3.org/TR/2001/REC-SVG-20010904/DTD/svg10.dtd">
<svg version="1.0" xmlns="http://www.w3.org/2000/svg"
 width="500.000000pt" height="500.000000pt" viewBox="0 0 500.000000 500.000000"
 preserveAspectRatio="xMidYMid meet">

<g transform="translate(0.000000,500.000000) scale(0.100000,-0.100000)"
fill="#000000" stroke="none">
<path d="M1770 2965 c-202 -41 -366 -158 -459 -325 -43 -78 -101 -242 -101
-285 l0 -25 125 0 c69 0 125 3 125 8 0 47 36 223 60 293 39 117 69 167 136
228 78 71 144 95 269 95 88 1 107 -2 156 -25 60 -29 98 -70 123 -134 19 -50
36 -145 36 -202 l0 -43 38 0 c59 0 135 41 155 83 65 136 -61 286 -280 332 -85
18 -294 18 -383 0z"/>
<path d="M3076 2941 c-3 -4 17 -11 44 -14 27 -3 63 -13 80 -22 55 -28 60 -57
60 -330 l0 -245 100 0 100 0 0 250 c0 277 4 296 61 325 16 9 52 19 79 22 27 3
47 10 44 14 -3 5 -131 9 -284 9 -153 0 -281 -4 -284 -9z"/>
<path d="M1210 1821 c0 -11 12 -57 26 -103 69 -217 180 -354 359 -439 102 -48
205 -69 345 -69 227 0 400 72 471 194 35 61 38 112 8 150 -27 35 -35 33 -50
-11 -37 -115 -108 -214 -186 -259 -118 -70 -304 -72 -441 -6 -136 66 -240 256
-270 497 l-7 60 -128 3 c-121 2 -127 2 -127 -17z"/>
<path d="M3258 1568 c-5 -303 -13 -348 -70 -414 -40 -45 -74 -63 -157 -79
l-66 -13 75 -1 c129 -1 240 39 308 114 90 97 111 187 112 473 l0 192 -99 0
-99 0 -4 -272z"/>
</g>
</svg>
